<mxfile host="Electron" modified="2023-06-12T09:49:43.973Z" agent="Mozilla/5.0 (Windows NT 10.0; Win64; x64) AppleWebKit/537.36 (KHTML, like Gecko) draw.io/21.2.8 Chrome/112.0.5615.165 Electron/24.2.0 Safari/537.36" etag="YDxdJd5uWwvPj0dZ_lrK" version="21.2.8" type="device">
  <diagram name="第 1 页" id="nwBrtf8yUGbZNNl4ERZq">
    <mxGraphModel dx="1036" dy="606" grid="1" gridSize="10" guides="1" tooltips="1" connect="1" arrows="1" fold="1" page="1" pageScale="1" pageWidth="827" pageHeight="1169" math="0" shadow="0">
      <root>
        <mxCell id="0" />
        <mxCell id="1" parent="0" />
        <mxCell id="diwJJhaW4VWhhrZk-QZh-1" value="" style="rounded=0;whiteSpace=wrap;html=1;align=left;verticalAlign=top;fillColor=#dae8fc;strokeColor=#6c8ebf;" vertex="1" parent="1">
          <mxGeometry x="180" y="150" width="390" height="220" as="geometry" />
        </mxCell>
        <mxCell id="diwJJhaW4VWhhrZk-QZh-2" value="圈子" style="text;html=1;strokeColor=#6c8ebf;fillColor=#dae8fc;align=center;verticalAlign=middle;whiteSpace=wrap;rounded=0;" vertex="1" parent="1">
          <mxGeometry x="180" y="150" width="60" height="30" as="geometry" />
        </mxCell>
        <mxCell id="diwJJhaW4VWhhrZk-QZh-3" value="用户" style="rounded=0;whiteSpace=wrap;html=1;fillColor=#fff2cc;strokeColor=#d6b656;" vertex="1" parent="1">
          <mxGeometry x="400" y="210" width="100" height="70" as="geometry" />
        </mxCell>
        <mxCell id="diwJJhaW4VWhhrZk-QZh-4" value="部门" style="rounded=0;whiteSpace=wrap;html=1;fillColor=#d5e8d4;strokeColor=#82b366;align=left;verticalAlign=top;" vertex="1" parent="1">
          <mxGeometry x="190" y="210" width="200" height="150" as="geometry" />
        </mxCell>
        <mxCell id="diwJJhaW4VWhhrZk-QZh-5" value="用户" style="rounded=0;whiteSpace=wrap;html=1;fillColor=#fff2cc;strokeColor=#d6b656;" vertex="1" parent="1">
          <mxGeometry x="270" y="290" width="100" height="60" as="geometry" />
        </mxCell>
      </root>
    </mxGraphModel>
  </diagram>
</mxfile>
